<mxfile host="app.diagrams.net" modified="2024-06-12T08:52:51.924Z" agent="Mozilla/5.0 (Windows NT 10.0; Win64; x64) AppleWebKit/537.36 (KHTML, like Gecko) Chrome/125.0.0.0 Safari/537.36" etag="KR0cEtzfnsB7BqfQrSi8" version="24.4.14" type="github">
  <diagram id="C5RBs43oDa-KdzZeNtuy" name="数据库">
    <mxGraphModel dx="2944" dy="1691" grid="1" gridSize="10" guides="1" tooltips="1" connect="1" arrows="1" fold="1" page="1" pageScale="1" pageWidth="827" pageHeight="1169" math="0" shadow="0">
      <root>
        <mxCell id="WIyWlLk6GJQsqaUBKTNV-0" />
        <mxCell id="WIyWlLk6GJQsqaUBKTNV-1" parent="WIyWlLk6GJQsqaUBKTNV-0" />
        <mxCell id="ziHvxphegY-7aYO601hB-0" value="&lt;code style=&quot;font-family: Consolas, &amp;quot;Bitstream Vera Sans Mono&amp;quot;, &amp;quot;Courier New&amp;quot;, Courier, monospace; border-radius: 0px; background: none rgb(255, 255, 255); border: 0px; inset: auto; float: none; height: auto; line-height: 20px; margin: 0px; outline: 0px; overflow: visible; padding: 0px; position: static; text-align: left; vertical-align: baseline; width: auto; box-sizing: content-box; font-size: 14px; min-height: inherit; text-wrap: nowrap; color: rgb(0, 51, 102) !important;&quot; class=&quot;java string&quot;&gt;lucky_marketing_extend&lt;/code&gt;&lt;code style=&quot;font-family: Consolas, &amp;quot;Bitstream Vera Sans Mono&amp;quot;, &amp;quot;Courier New&amp;quot;, Courier, monospace; border-radius: 0px; background: none rgb(255, 255, 255); border: 0px; inset: auto; float: none; height: auto; line-height: 20px; margin: 0px; outline: 0px; overflow: visible; padding: 0px; position: static; text-align: left; vertical-align: baseline; width: auto; box-sizing: content-box; font-size: 14px; min-height: inherit; text-wrap: nowrap;&quot; class=&quot;java plain&quot;&gt;.&lt;/code&gt;&lt;div&gt;&lt;code style=&quot;font-family: Consolas, &amp;quot;Bitstream Vera Sans Mono&amp;quot;, &amp;quot;Courier New&amp;quot;, Courier, monospace; border-radius: 0px; background: none rgb(255, 255, 255); border: 0px; inset: auto; float: none; height: auto; line-height: 20px; margin: 0px; outline: 0px; overflow: visible; padding: 0px; position: static; text-align: left; vertical-align: baseline; width: auto; box-sizing: content-box; font-size: 14px; min-height: inherit; text-wrap: nowrap;&quot; class=&quot;java plain&quot;&gt;t_coupon_pool_proposal&lt;/code&gt;&lt;/div&gt;" style="rounded=0;whiteSpace=wrap;html=1;" vertex="1" parent="WIyWlLk6GJQsqaUBKTNV-1">
          <mxGeometry x="-790" y="30" width="210" height="60" as="geometry" />
        </mxCell>
        <mxCell id="ziHvxphegY-7aYO601hB-1" value="&lt;code style=&quot;font-family: Consolas, &amp;quot;Bitstream Vera Sans Mono&amp;quot;, &amp;quot;Courier New&amp;quot;, Courier, monospace; border-radius: 0px; background: none rgb(255, 255, 255); border: 0px; inset: auto; float: none; height: auto; line-height: 20px; margin: 0px; outline: 0px; overflow: visible; padding: 0px; position: static; text-align: left; vertical-align: baseline; width: auto; box-sizing: content-box; font-size: 14px; min-height: inherit; text-wrap: nowrap; color: rgb(0, 51, 102) !important;&quot; class=&quot;java string&quot;&gt;lucky_marketing_extend&lt;/code&gt;&lt;code style=&quot;font-family: Consolas, &amp;quot;Bitstream Vera Sans Mono&amp;quot;, &amp;quot;Courier New&amp;quot;, Courier, monospace; border-radius: 0px; background: none rgb(255, 255, 255); border: 0px; inset: auto; float: none; height: auto; line-height: 20px; margin: 0px; outline: 0px; overflow: visible; padding: 0px; position: static; text-align: left; vertical-align: baseline; width: auto; box-sizing: content-box; font-size: 14px; min-height: inherit; text-wrap: nowrap;&quot; class=&quot;java plain&quot;&gt;.&lt;/code&gt;&lt;div&gt;&lt;span style=&quot;font-family: Consolas, &amp;quot;Bitstream Vera Sans Mono&amp;quot;, &amp;quot;Courier New&amp;quot;, Courier, monospace; font-size: 14px; text-align: left; text-wrap: nowrap; background-color: rgb(255, 255, 255);&quot;&gt;t_coupon_pool&lt;/span&gt;&lt;br&gt;&lt;/div&gt;" style="rounded=0;whiteSpace=wrap;html=1;" vertex="1" parent="WIyWlLk6GJQsqaUBKTNV-1">
          <mxGeometry x="-540" y="30" width="210" height="60" as="geometry" />
        </mxCell>
        <mxCell id="ziHvxphegY-7aYO601hB-29" style="edgeStyle=orthogonalEdgeStyle;rounded=0;orthogonalLoop=1;jettySize=auto;html=1;exitX=0.25;exitY=0;exitDx=0;exitDy=0;entryX=1;entryY=0.5;entryDx=0;entryDy=0;" edge="1" parent="WIyWlLk6GJQsqaUBKTNV-1" source="ziHvxphegY-7aYO601hB-2" target="ziHvxphegY-7aYO601hB-22">
          <mxGeometry relative="1" as="geometry" />
        </mxCell>
        <mxCell id="ziHvxphegY-7aYO601hB-30" style="edgeStyle=orthogonalEdgeStyle;rounded=0;orthogonalLoop=1;jettySize=auto;html=1;exitX=0;exitY=0.5;exitDx=0;exitDy=0;entryX=1;entryY=0.5;entryDx=0;entryDy=0;" edge="1" parent="WIyWlLk6GJQsqaUBKTNV-1" source="ziHvxphegY-7aYO601hB-2" target="ziHvxphegY-7aYO601hB-4">
          <mxGeometry relative="1" as="geometry" />
        </mxCell>
        <mxCell id="ziHvxphegY-7aYO601hB-33" style="edgeStyle=orthogonalEdgeStyle;rounded=0;orthogonalLoop=1;jettySize=auto;html=1;exitX=0.5;exitY=1;exitDx=0;exitDy=0;entryX=0.5;entryY=0;entryDx=0;entryDy=0;" edge="1" parent="WIyWlLk6GJQsqaUBKTNV-1" source="ziHvxphegY-7aYO601hB-2" target="ziHvxphegY-7aYO601hB-5">
          <mxGeometry relative="1" as="geometry" />
        </mxCell>
        <mxCell id="ziHvxphegY-7aYO601hB-34" value="1:n" style="edgeLabel;html=1;align=center;verticalAlign=middle;resizable=0;points=[];" vertex="1" connectable="0" parent="ziHvxphegY-7aYO601hB-33">
          <mxGeometry x="-0.1" relative="1" as="geometry">
            <mxPoint as="offset" />
          </mxGeometry>
        </mxCell>
        <mxCell id="ziHvxphegY-7aYO601hB-2" value="&lt;code style=&quot;font-family: Consolas, &amp;quot;Bitstream Vera Sans Mono&amp;quot;, &amp;quot;Courier New&amp;quot;, Courier, monospace; border-radius: 0px; background: none rgb(255, 255, 255); border: 0px; inset: auto; float: none; height: auto; line-height: 20px; margin: 0px; outline: 0px; overflow: visible; padding: 0px; position: static; text-align: left; vertical-align: baseline; width: auto; box-sizing: content-box; font-size: 14px; min-height: inherit; text-wrap: nowrap; color: rgb(0, 51, 102) !important;&quot; class=&quot;java string&quot;&gt;lucky_marketing&lt;/code&gt;&lt;code style=&quot;font-family: Consolas, &amp;quot;Bitstream Vera Sans Mono&amp;quot;, &amp;quot;Courier New&amp;quot;, Courier, monospace; border-radius: 0px; background: none rgb(255, 255, 255); border: 0px; inset: auto; float: none; height: auto; line-height: 20px; margin: 0px; outline: 0px; overflow: visible; padding: 0px; position: static; text-align: left; vertical-align: baseline; width: auto; box-sizing: content-box; font-size: 14px; min-height: inherit; text-wrap: nowrap;&quot; class=&quot;java plain&quot;&gt;.&lt;/code&gt;&lt;div&gt;&lt;span style=&quot;font-family: Consolas, &amp;quot;Bitstream Vera Sans Mono&amp;quot;, &amp;quot;Courier New&amp;quot;, Courier, monospace; font-size: 14px; text-align: left; text-wrap: nowrap; background-color: rgb(255, 255, 255);&quot;&gt;t_mkt_proposal&lt;/span&gt;&lt;br&gt;&lt;/div&gt;" style="rounded=0;whiteSpace=wrap;html=1;" vertex="1" parent="WIyWlLk6GJQsqaUBKTNV-1">
          <mxGeometry x="-1220" y="70" width="170" height="60" as="geometry" />
        </mxCell>
        <mxCell id="ziHvxphegY-7aYO601hB-3" value="&lt;code style=&quot;font-family: Consolas, &amp;quot;Bitstream Vera Sans Mono&amp;quot;, &amp;quot;Courier New&amp;quot;, Courier, monospace; border-radius: 0px; background: none rgb(255, 255, 255); border: 0px; inset: auto; float: none; height: auto; line-height: 20px; margin: 0px; outline: 0px; overflow: visible; padding: 0px; position: static; text-align: left; vertical-align: baseline; width: auto; box-sizing: content-box; font-size: 14px; min-height: inherit; text-wrap: nowrap; color: rgb(0, 51, 102) !important;&quot; class=&quot;java string&quot;&gt;lucky_marketing&lt;/code&gt;&lt;code style=&quot;font-family: Consolas, &amp;quot;Bitstream Vera Sans Mono&amp;quot;, &amp;quot;Courier New&amp;quot;, Courier, monospace; border-radius: 0px; background: none rgb(255, 255, 255); border: 0px; inset: auto; float: none; height: auto; line-height: 20px; margin: 0px; outline: 0px; overflow: visible; padding: 0px; position: static; text-align: left; vertical-align: baseline; width: auto; box-sizing: content-box; font-size: 14px; min-height: inherit; text-wrap: nowrap;&quot; class=&quot;java plain&quot;&gt;.&lt;/code&gt;&lt;div&gt;&lt;span style=&quot;font-family: Consolas, &amp;quot;Bitstream Vera Sans Mono&amp;quot;, &amp;quot;Courier New&amp;quot;, Courier, monospace; font-size: 14px; text-align: left; text-wrap: nowrap; background-color: rgb(255, 255, 255);&quot;&gt;t_allowance_project&lt;/span&gt;&lt;br&gt;&lt;/div&gt;" style="rounded=0;whiteSpace=wrap;html=1;" vertex="1" parent="WIyWlLk6GJQsqaUBKTNV-1">
          <mxGeometry x="-590" y="110" width="170" height="60" as="geometry" />
        </mxCell>
        <mxCell id="ziHvxphegY-7aYO601hB-4" value="&lt;code style=&quot;font-family: Consolas, &amp;quot;Bitstream Vera Sans Mono&amp;quot;, &amp;quot;Courier New&amp;quot;, Courier, monospace; border-radius: 0px; background: none rgb(255, 255, 255); border: 0px; inset: auto; float: none; height: auto; line-height: 20px; margin: 0px; outline: 0px; overflow: visible; padding: 0px; position: static; text-align: left; vertical-align: baseline; width: auto; box-sizing: content-box; font-size: 14px; min-height: inherit; text-wrap: nowrap; color: rgb(0, 51, 102) !important;&quot; class=&quot;java string&quot;&gt;lucky_marketing&lt;/code&gt;&lt;code style=&quot;font-family: Consolas, &amp;quot;Bitstream Vera Sans Mono&amp;quot;, &amp;quot;Courier New&amp;quot;, Courier, monospace; border-radius: 0px; background: none rgb(255, 255, 255); border: 0px; inset: auto; float: none; height: auto; line-height: 20px; margin: 0px; outline: 0px; overflow: visible; padding: 0px; position: static; text-align: left; vertical-align: baseline; width: auto; box-sizing: content-box; font-size: 14px; min-height: inherit; text-wrap: nowrap;&quot; class=&quot;java plain&quot;&gt;.&lt;/code&gt;&lt;div&gt;&lt;span style=&quot;font-family: Consolas, &amp;quot;Bitstream Vera Sans Mono&amp;quot;, &amp;quot;Courier New&amp;quot;, Courier, monospace; font-size: 14px; text-align: left; text-wrap: nowrap; background-color: rgb(255, 255, 255);&quot;&gt;t_mkt_proposal_sub_type&lt;/span&gt;&lt;br&gt;&lt;/div&gt;" style="rounded=0;whiteSpace=wrap;html=1;" vertex="1" parent="WIyWlLk6GJQsqaUBKTNV-1">
          <mxGeometry x="-1520" y="70" width="190" height="60" as="geometry" />
        </mxCell>
        <mxCell id="ziHvxphegY-7aYO601hB-5" value="&lt;code style=&quot;font-family: Consolas, &amp;quot;Bitstream Vera Sans Mono&amp;quot;, &amp;quot;Courier New&amp;quot;, Courier, monospace; border-radius: 0px; background: none rgb(255, 255, 255); border: 0px; inset: auto; float: none; height: auto; line-height: 20px; margin: 0px; outline: 0px; overflow: visible; padding: 0px; position: static; text-align: left; vertical-align: baseline; width: auto; box-sizing: content-box; font-size: 14px; min-height: inherit; text-wrap: nowrap; color: rgb(0, 51, 102) !important;&quot; class=&quot;java string&quot;&gt;lucky_marketing&lt;/code&gt;&lt;code style=&quot;font-family: Consolas, &amp;quot;Bitstream Vera Sans Mono&amp;quot;, &amp;quot;Courier New&amp;quot;, Courier, monospace; border-radius: 0px; background: none rgb(255, 255, 255); border: 0px; inset: auto; float: none; height: auto; line-height: 20px; margin: 0px; outline: 0px; overflow: visible; padding: 0px; position: static; text-align: left; vertical-align: baseline; width: auto; box-sizing: content-box; font-size: 14px; min-height: inherit; text-wrap: nowrap;&quot; class=&quot;java plain&quot;&gt;.&lt;/code&gt;&lt;div&gt;&lt;span style=&quot;font-family: Consolas, &amp;quot;Bitstream Vera Sans Mono&amp;quot;, &amp;quot;Courier New&amp;quot;, Courier, monospace; font-size: 14px; text-align: left; text-wrap: nowrap; background-color: rgb(255, 255, 255);&quot;&gt;t_mkt_proposal_coupon&lt;/span&gt;&lt;br&gt;&lt;/div&gt;" style="rounded=0;whiteSpace=wrap;html=1;" vertex="1" parent="WIyWlLk6GJQsqaUBKTNV-1">
          <mxGeometry x="-1220" y="170" width="170" height="60" as="geometry" />
        </mxCell>
        <mxCell id="ziHvxphegY-7aYO601hB-6" value="&lt;code style=&quot;font-family: Consolas, &amp;quot;Bitstream Vera Sans Mono&amp;quot;, &amp;quot;Courier New&amp;quot;, Courier, monospace; border-radius: 0px; background: none rgb(255, 255, 255); border: 0px; inset: auto; float: none; height: auto; line-height: 20px; margin: 0px; outline: 0px; overflow: visible; padding: 0px; position: static; text-align: left; vertical-align: baseline; width: auto; box-sizing: content-box; font-size: 14px; min-height: inherit; text-wrap: nowrap; color: rgb(0, 51, 102) !important;&quot; class=&quot;java string&quot;&gt;lucky_marketing_extend&lt;/code&gt;&lt;code style=&quot;font-family: Consolas, &amp;quot;Bitstream Vera Sans Mono&amp;quot;, &amp;quot;Courier New&amp;quot;, Courier, monospace; border-radius: 0px; background: none rgb(255, 255, 255); border: 0px; inset: auto; float: none; height: auto; line-height: 20px; margin: 0px; outline: 0px; overflow: visible; padding: 0px; position: static; text-align: left; vertical-align: baseline; width: auto; box-sizing: content-box; font-size: 14px; min-height: inherit; text-wrap: nowrap;&quot; class=&quot;java plain&quot;&gt;.&lt;/code&gt;&lt;div&gt;&lt;span style=&quot;font-family: Consolas, &amp;quot;Bitstream Vera Sans Mono&amp;quot;, &amp;quot;Courier New&amp;quot;, Courier, monospace; font-size: 14px; text-align: left; text-wrap: nowrap; background-color: rgb(255, 255, 255);&quot;&gt;t_mkt_coupon_template_extend&lt;/span&gt;&lt;br&gt;&lt;/div&gt;" style="rounded=0;whiteSpace=wrap;html=1;" vertex="1" parent="WIyWlLk6GJQsqaUBKTNV-1">
          <mxGeometry x="-1560" y="280" width="230" height="60" as="geometry" />
        </mxCell>
        <mxCell id="ziHvxphegY-7aYO601hB-7" value="&lt;code style=&quot;font-family: Consolas, &amp;quot;Bitstream Vera Sans Mono&amp;quot;, &amp;quot;Courier New&amp;quot;, Courier, monospace; border-radius: 0px; background: none rgb(255, 255, 255); border: 0px; inset: auto; float: none; height: auto; line-height: 20px; margin: 0px; outline: 0px; overflow: visible; padding: 0px; position: static; text-align: left; vertical-align: baseline; width: auto; box-sizing: content-box; font-size: 14px; min-height: inherit; text-wrap: nowrap; color: rgb(0, 51, 102) !important;&quot; class=&quot;java string&quot;&gt;lucky_marketing&lt;/code&gt;&lt;code style=&quot;font-family: Consolas, &amp;quot;Bitstream Vera Sans Mono&amp;quot;, &amp;quot;Courier New&amp;quot;, Courier, monospace; border-radius: 0px; background: none rgb(255, 255, 255); border: 0px; inset: auto; float: none; height: auto; line-height: 20px; margin: 0px; outline: 0px; overflow: visible; padding: 0px; position: static; text-align: left; vertical-align: baseline; width: auto; box-sizing: content-box; font-size: 14px; min-height: inherit; text-wrap: nowrap;&quot; class=&quot;java plain&quot;&gt;.&lt;/code&gt;&lt;div&gt;&lt;span style=&quot;font-family: Consolas, &amp;quot;Bitstream Vera Sans Mono&amp;quot;, &amp;quot;Courier New&amp;quot;, Courier, monospace; font-size: 14px; text-align: left; text-wrap: nowrap; background-color: rgb(255, 255, 255);&quot;&gt;t_mkt_coupon_wechat&lt;/span&gt;&lt;br&gt;&lt;/div&gt;" style="rounded=0;whiteSpace=wrap;html=1;" vertex="1" parent="WIyWlLk6GJQsqaUBKTNV-1">
          <mxGeometry x="-980" y="115" width="170" height="60" as="geometry" />
        </mxCell>
        <mxCell id="ziHvxphegY-7aYO601hB-8" value="&lt;code style=&quot;font-family: Consolas, &amp;quot;Bitstream Vera Sans Mono&amp;quot;, &amp;quot;Courier New&amp;quot;, Courier, monospace; border-radius: 0px; background: none rgb(255, 255, 255); border: 0px; inset: auto; float: none; height: auto; line-height: 20px; margin: 0px; outline: 0px; overflow: visible; padding: 0px; position: static; text-align: left; vertical-align: baseline; width: auto; box-sizing: content-box; font-size: 14px; min-height: inherit; text-wrap: nowrap; color: rgb(0, 51, 102) !important;&quot; class=&quot;java string&quot;&gt;lucky_marketing&lt;/code&gt;&lt;code style=&quot;font-family: Consolas, &amp;quot;Bitstream Vera Sans Mono&amp;quot;, &amp;quot;Courier New&amp;quot;, Courier, monospace; border-radius: 0px; background: none rgb(255, 255, 255); border: 0px; inset: auto; float: none; height: auto; line-height: 20px; margin: 0px; outline: 0px; overflow: visible; padding: 0px; position: static; text-align: left; vertical-align: baseline; width: auto; box-sizing: content-box; font-size: 14px; min-height: inherit; text-wrap: nowrap;&quot; class=&quot;java plain&quot;&gt;.&lt;/code&gt;&lt;div&gt;&lt;span style=&quot;font-family: Consolas, &amp;quot;Bitstream Vera Sans Mono&amp;quot;, &amp;quot;Courier New&amp;quot;, Courier, monospace; font-size: 14px; text-align: left; text-wrap: nowrap; background-color: rgb(255, 255, 255);&quot;&gt;t_mkt_coupon_alipay&lt;/span&gt;&lt;br&gt;&lt;/div&gt;" style="rounded=0;whiteSpace=wrap;html=1;" vertex="1" parent="WIyWlLk6GJQsqaUBKTNV-1">
          <mxGeometry x="-980" y="195" width="170" height="60" as="geometry" />
        </mxCell>
        <mxCell id="ziHvxphegY-7aYO601hB-9" value="&lt;code style=&quot;font-family: Consolas, &amp;quot;Bitstream Vera Sans Mono&amp;quot;, &amp;quot;Courier New&amp;quot;, Courier, monospace; border-radius: 0px; background: none rgb(255, 255, 255); border: 0px; inset: auto; float: none; height: auto; line-height: 20px; margin: 0px; outline: 0px; overflow: visible; padding: 0px; position: static; text-align: left; vertical-align: baseline; width: auto; box-sizing: content-box; font-size: 14px; min-height: inherit; text-wrap: nowrap; color: rgb(0, 51, 102) !important;&quot; class=&quot;java string&quot;&gt;lucky_marketing&lt;/code&gt;&lt;code style=&quot;font-family: Consolas, &amp;quot;Bitstream Vera Sans Mono&amp;quot;, &amp;quot;Courier New&amp;quot;, Courier, monospace; border-radius: 0px; background: none rgb(255, 255, 255); border: 0px; inset: auto; float: none; height: auto; line-height: 20px; margin: 0px; outline: 0px; overflow: visible; padding: 0px; position: static; text-align: left; vertical-align: baseline; width: auto; box-sizing: content-box; font-size: 14px; min-height: inherit; text-wrap: nowrap;&quot; class=&quot;java plain&quot;&gt;.&lt;/code&gt;&lt;div&gt;&lt;span style=&quot;font-family: Consolas, &amp;quot;Bitstream Vera Sans Mono&amp;quot;, &amp;quot;Courier New&amp;quot;, Courier, monospace; font-size: 14px; text-align: left; text-wrap: nowrap; background-color: rgb(255, 255, 255);&quot;&gt;t_mkt_coupon_city&lt;/span&gt;&lt;br&gt;&lt;/div&gt;" style="rounded=0;whiteSpace=wrap;html=1;" vertex="1" parent="WIyWlLk6GJQsqaUBKTNV-1">
          <mxGeometry x="-1600" y="420" width="170" height="60" as="geometry" />
        </mxCell>
        <mxCell id="ziHvxphegY-7aYO601hB-10" value="&lt;code style=&quot;font-family: Consolas, &amp;quot;Bitstream Vera Sans Mono&amp;quot;, &amp;quot;Courier New&amp;quot;, Courier, monospace; border-radius: 0px; background: none rgb(255, 255, 255); border: 0px; inset: auto; float: none; height: auto; line-height: 20px; margin: 0px; outline: 0px; overflow: visible; padding: 0px; position: static; text-align: left; vertical-align: baseline; width: auto; box-sizing: content-box; font-size: 14px; min-height: inherit; text-wrap: nowrap; color: rgb(0, 51, 102) !important;&quot; class=&quot;java string&quot;&gt;lucky_marketing&lt;/code&gt;&lt;code style=&quot;font-family: Consolas, &amp;quot;Bitstream Vera Sans Mono&amp;quot;, &amp;quot;Courier New&amp;quot;, Courier, monospace; border-radius: 0px; background: none rgb(255, 255, 255); border: 0px; inset: auto; float: none; height: auto; line-height: 20px; margin: 0px; outline: 0px; overflow: visible; padding: 0px; position: static; text-align: left; vertical-align: baseline; width: auto; box-sizing: content-box; font-size: 14px; min-height: inherit; text-wrap: nowrap;&quot; class=&quot;java plain&quot;&gt;.&lt;/code&gt;&lt;div&gt;&lt;span style=&quot;font-family: Consolas, &amp;quot;Bitstream Vera Sans Mono&amp;quot;, &amp;quot;Courier New&amp;quot;, Courier, monospace; font-size: 14px; text-align: left; text-wrap: nowrap; background-color: rgb(255, 255, 255);&quot;&gt;t_mkt_coupon_store&lt;/span&gt;&lt;br&gt;&lt;/div&gt;" style="rounded=0;whiteSpace=wrap;html=1;" vertex="1" parent="WIyWlLk6GJQsqaUBKTNV-1">
          <mxGeometry x="-1410.5" y="420" width="170" height="60" as="geometry" />
        </mxCell>
        <mxCell id="ziHvxphegY-7aYO601hB-11" value="&lt;code style=&quot;font-family: Consolas, &amp;quot;Bitstream Vera Sans Mono&amp;quot;, &amp;quot;Courier New&amp;quot;, Courier, monospace; border-radius: 0px; background: none rgb(255, 255, 255); border: 0px; inset: auto; float: none; height: auto; line-height: 20px; margin: 0px; outline: 0px; overflow: visible; padding: 0px; position: static; text-align: left; vertical-align: baseline; width: auto; box-sizing: content-box; font-size: 14px; min-height: inherit; text-wrap: nowrap; color: rgb(0, 51, 102) !important;&quot; class=&quot;java string&quot;&gt;lucky_marketing&lt;/code&gt;&lt;code style=&quot;font-family: Consolas, &amp;quot;Bitstream Vera Sans Mono&amp;quot;, &amp;quot;Courier New&amp;quot;, Courier, monospace; border-radius: 0px; background: none rgb(255, 255, 255); border: 0px; inset: auto; float: none; height: auto; line-height: 20px; margin: 0px; outline: 0px; overflow: visible; padding: 0px; position: static; text-align: left; vertical-align: baseline; width: auto; box-sizing: content-box; font-size: 14px; min-height: inherit; text-wrap: nowrap;&quot; class=&quot;java plain&quot;&gt;.&lt;/code&gt;&lt;div&gt;&lt;span style=&quot;font-family: Consolas, &amp;quot;Bitstream Vera Sans Mono&amp;quot;, &amp;quot;Courier New&amp;quot;, Courier, monospace; font-size: 14px; text-align: left; text-wrap: nowrap; background-color: rgb(255, 255, 255);&quot;&gt;t_mkt_coupon_period&lt;/span&gt;&lt;br&gt;&lt;/div&gt;" style="rounded=0;whiteSpace=wrap;html=1;" vertex="1" parent="WIyWlLk6GJQsqaUBKTNV-1">
          <mxGeometry x="-1220" y="420" width="170" height="60" as="geometry" />
        </mxCell>
        <mxCell id="ziHvxphegY-7aYO601hB-12" value="&lt;code style=&quot;font-family: Consolas, &amp;quot;Bitstream Vera Sans Mono&amp;quot;, &amp;quot;Courier New&amp;quot;, Courier, monospace; border-radius: 0px; background: none rgb(255, 255, 255); border: 0px; inset: auto; float: none; height: auto; line-height: 20px; margin: 0px; outline: 0px; overflow: visible; padding: 0px; position: static; text-align: left; vertical-align: baseline; width: auto; box-sizing: content-box; font-size: 14px; min-height: inherit; text-wrap: nowrap; color: rgb(0, 51, 102) !important;&quot; class=&quot;java string&quot;&gt;lucky_marketing&lt;/code&gt;&lt;code style=&quot;font-family: Consolas, &amp;quot;Bitstream Vera Sans Mono&amp;quot;, &amp;quot;Courier New&amp;quot;, Courier, monospace; border-radius: 0px; background: none rgb(255, 255, 255); border: 0px; inset: auto; float: none; height: auto; line-height: 20px; margin: 0px; outline: 0px; overflow: visible; padding: 0px; position: static; text-align: left; vertical-align: baseline; width: auto; box-sizing: content-box; font-size: 14px; min-height: inherit; text-wrap: nowrap;&quot; class=&quot;java plain&quot;&gt;.&lt;/code&gt;&lt;div&gt;&lt;span style=&quot;font-family: Consolas, &amp;quot;Bitstream Vera Sans Mono&amp;quot;, &amp;quot;Courier New&amp;quot;, Courier, monospace; font-size: 14px; text-align: left; text-wrap: nowrap; background-color: rgb(255, 255, 255);&quot;&gt;t_mkt_coupon_commodity&lt;/span&gt;&lt;br&gt;&lt;/div&gt;" style="rounded=0;whiteSpace=wrap;html=1;" vertex="1" parent="WIyWlLk6GJQsqaUBKTNV-1">
          <mxGeometry x="-1030" y="420" width="180" height="60" as="geometry" />
        </mxCell>
        <mxCell id="ziHvxphegY-7aYO601hB-13" value="&lt;code style=&quot;font-family: Consolas, &amp;quot;Bitstream Vera Sans Mono&amp;quot;, &amp;quot;Courier New&amp;quot;, Courier, monospace; border-radius: 0px; background: none rgb(255, 255, 255); border: 0px; inset: auto; float: none; height: auto; line-height: 20px; margin: 0px; outline: 0px; overflow: visible; padding: 0px; position: static; text-align: left; vertical-align: baseline; width: auto; box-sizing: content-box; font-size: 14px; min-height: inherit; text-wrap: nowrap; color: rgb(0, 51, 102) !important;&quot; class=&quot;java string&quot;&gt;lucky_marketing&lt;/code&gt;&lt;code style=&quot;font-family: Consolas, &amp;quot;Bitstream Vera Sans Mono&amp;quot;, &amp;quot;Courier New&amp;quot;, Courier, monospace; border-radius: 0px; background: none rgb(255, 255, 255); border: 0px; inset: auto; float: none; height: auto; line-height: 20px; margin: 0px; outline: 0px; overflow: visible; padding: 0px; position: static; text-align: left; vertical-align: baseline; width: auto; box-sizing: content-box; font-size: 14px; min-height: inherit; text-wrap: nowrap;&quot; class=&quot;java plain&quot;&gt;.&lt;/code&gt;&lt;div&gt;&lt;span style=&quot;font-family: Consolas, &amp;quot;Bitstream Vera Sans Mono&amp;quot;, &amp;quot;Courier New&amp;quot;, Courier, monospace; font-size: 14px; text-align: left; text-wrap: nowrap; background-color: rgb(255, 255, 255);&quot;&gt;t_mkt_coupon_commodity_pool&lt;/span&gt;&lt;br&gt;&lt;/div&gt;" style="rounded=0;whiteSpace=wrap;html=1;" vertex="1" parent="WIyWlLk6GJQsqaUBKTNV-1">
          <mxGeometry x="-980" y="280" width="230" height="60" as="geometry" />
        </mxCell>
        <mxCell id="ziHvxphegY-7aYO601hB-14" value="&lt;code style=&quot;font-family: Consolas, &amp;quot;Bitstream Vera Sans Mono&amp;quot;, &amp;quot;Courier New&amp;quot;, Courier, monospace; border-radius: 0px; background: none rgb(255, 255, 255); border: 0px; inset: auto; float: none; height: auto; line-height: 20px; margin: 0px; outline: 0px; overflow: visible; padding: 0px; position: static; text-align: left; vertical-align: baseline; width: auto; box-sizing: content-box; font-size: 14px; min-height: inherit; text-wrap: nowrap; color: rgb(0, 51, 102) !important;&quot; class=&quot;java string&quot;&gt;lucky_marketing&lt;/code&gt;&lt;code style=&quot;font-family: Consolas, &amp;quot;Bitstream Vera Sans Mono&amp;quot;, &amp;quot;Courier New&amp;quot;, Courier, monospace; border-radius: 0px; background: none rgb(255, 255, 255); border: 0px; inset: auto; float: none; height: auto; line-height: 20px; margin: 0px; outline: 0px; overflow: visible; padding: 0px; position: static; text-align: left; vertical-align: baseline; width: auto; box-sizing: content-box; font-size: 14px; min-height: inherit; text-wrap: nowrap;&quot; class=&quot;java plain&quot;&gt;.&lt;/code&gt;&lt;div&gt;&lt;span style=&quot;font-family: Consolas, &amp;quot;Bitstream Vera Sans Mono&amp;quot;, &amp;quot;Courier New&amp;quot;, Courier, monospace; font-size: 14px; text-align: left; text-wrap: nowrap; background-color: rgb(255, 255, 255);&quot;&gt;t_mkt_partner_send_config&lt;/span&gt;&lt;br&gt;&lt;/div&gt;" style="rounded=0;whiteSpace=wrap;html=1;" vertex="1" parent="WIyWlLk6GJQsqaUBKTNV-1">
          <mxGeometry x="-510" y="440" width="210" height="60" as="geometry" />
        </mxCell>
        <mxCell id="ziHvxphegY-7aYO601hB-15" value="&lt;code style=&quot;font-family: Consolas, &amp;quot;Bitstream Vera Sans Mono&amp;quot;, &amp;quot;Courier New&amp;quot;, Courier, monospace; border-radius: 0px; background: none rgb(255, 255, 255); border: 0px; inset: auto; float: none; height: auto; line-height: 20px; margin: 0px; outline: 0px; overflow: visible; padding: 0px; position: static; text-align: left; vertical-align: baseline; width: auto; box-sizing: content-box; font-size: 14px; min-height: inherit; text-wrap: nowrap; color: rgb(0, 51, 102) !important;&quot; class=&quot;java string&quot;&gt;lucky_marketing_extend&lt;/code&gt;&lt;code style=&quot;font-family: Consolas, &amp;quot;Bitstream Vera Sans Mono&amp;quot;, &amp;quot;Courier New&amp;quot;, Courier, monospace; border-radius: 0px; background: none rgb(255, 255, 255); border: 0px; inset: auto; float: none; height: auto; line-height: 20px; margin: 0px; outline: 0px; overflow: visible; padding: 0px; position: static; text-align: left; vertical-align: baseline; width: auto; box-sizing: content-box; font-size: 14px; min-height: inherit; text-wrap: nowrap;&quot; class=&quot;java plain&quot;&gt;.&lt;/code&gt;&lt;div&gt;&lt;span style=&quot;font-family: Consolas, &amp;quot;Bitstream Vera Sans Mono&amp;quot;, &amp;quot;Courier New&amp;quot;, Courier, monospace; font-size: 14px; text-align: left; text-wrap: nowrap; background-color: rgb(255, 255, 255);&quot;&gt;t_mkt_coupon_commodity_blacklist&lt;/span&gt;&lt;br&gt;&lt;/div&gt;" style="rounded=0;whiteSpace=wrap;html=1;" vertex="1" parent="WIyWlLk6GJQsqaUBKTNV-1">
          <mxGeometry x="-830" y="420" width="260" height="60" as="geometry" />
        </mxCell>
        <mxCell id="ziHvxphegY-7aYO601hB-16" value="&lt;code style=&quot;font-family: Consolas, &amp;quot;Bitstream Vera Sans Mono&amp;quot;, &amp;quot;Courier New&amp;quot;, Courier, monospace; border-radius: 0px; background: none rgb(255, 255, 255); border: 0px; inset: auto; float: none; height: auto; line-height: 20px; margin: 0px; outline: 0px; overflow: visible; padding: 0px; position: static; text-align: left; vertical-align: baseline; width: auto; box-sizing: content-box; font-size: 14px; min-height: inherit; text-wrap: nowrap; color: rgb(0, 51, 102) !important;&quot; class=&quot;java string&quot;&gt;lucky_marketing&lt;/code&gt;&lt;code style=&quot;font-family: Consolas, &amp;quot;Bitstream Vera Sans Mono&amp;quot;, &amp;quot;Courier New&amp;quot;, Courier, monospace; border-radius: 0px; background: none rgb(255, 255, 255); border: 0px; inset: auto; float: none; height: auto; line-height: 20px; margin: 0px; outline: 0px; overflow: visible; padding: 0px; position: static; text-align: left; vertical-align: baseline; width: auto; box-sizing: content-box; font-size: 14px; min-height: inherit; text-wrap: nowrap;&quot; class=&quot;java plain&quot;&gt;.&lt;/code&gt;&lt;div&gt;&lt;span style=&quot;font-family: Consolas, &amp;quot;Bitstream Vera Sans Mono&amp;quot;, &amp;quot;Courier New&amp;quot;, Courier, monospace; font-size: 14px; text-align: left; text-wrap: nowrap; background-color: rgb(255, 255, 255);&quot;&gt;t_mkt_coupon_send_record&lt;/span&gt;&lt;br&gt;&lt;/div&gt;" style="rounded=0;whiteSpace=wrap;html=1;" vertex="1" parent="WIyWlLk6GJQsqaUBKTNV-1">
          <mxGeometry x="-280" y="440" width="210" height="60" as="geometry" />
        </mxCell>
        <mxCell id="ziHvxphegY-7aYO601hB-31" style="edgeStyle=orthogonalEdgeStyle;rounded=0;orthogonalLoop=1;jettySize=auto;html=1;exitX=0;exitY=0.5;exitDx=0;exitDy=0;entryX=1;entryY=0.5;entryDx=0;entryDy=0;" edge="1" parent="WIyWlLk6GJQsqaUBKTNV-1" source="ziHvxphegY-7aYO601hB-17" target="ziHvxphegY-7aYO601hB-6">
          <mxGeometry relative="1" as="geometry" />
        </mxCell>
        <mxCell id="ziHvxphegY-7aYO601hB-35" style="edgeStyle=orthogonalEdgeStyle;rounded=0;orthogonalLoop=1;jettySize=auto;html=1;exitX=0.5;exitY=0;exitDx=0;exitDy=0;entryX=0.5;entryY=1;entryDx=0;entryDy=0;" edge="1" parent="WIyWlLk6GJQsqaUBKTNV-1" source="ziHvxphegY-7aYO601hB-17" target="ziHvxphegY-7aYO601hB-5">
          <mxGeometry relative="1" as="geometry" />
        </mxCell>
        <mxCell id="ziHvxphegY-7aYO601hB-36" value="1:n" style="edgeLabel;html=1;align=center;verticalAlign=middle;resizable=0;points=[];" vertex="1" connectable="0" parent="ziHvxphegY-7aYO601hB-35">
          <mxGeometry x="-0.04" relative="1" as="geometry">
            <mxPoint as="offset" />
          </mxGeometry>
        </mxCell>
        <mxCell id="ziHvxphegY-7aYO601hB-37" style="edgeStyle=orthogonalEdgeStyle;rounded=0;orthogonalLoop=1;jettySize=auto;html=1;exitX=0.5;exitY=1;exitDx=0;exitDy=0;entryX=0.5;entryY=0;entryDx=0;entryDy=0;" edge="1" parent="WIyWlLk6GJQsqaUBKTNV-1" source="ziHvxphegY-7aYO601hB-17" target="ziHvxphegY-7aYO601hB-11">
          <mxGeometry relative="1" as="geometry" />
        </mxCell>
        <mxCell id="ziHvxphegY-7aYO601hB-38" value="1:n" style="edgeLabel;html=1;align=center;verticalAlign=middle;resizable=0;points=[];" vertex="1" connectable="0" parent="ziHvxphegY-7aYO601hB-37">
          <mxGeometry x="-0.2" y="-2" relative="1" as="geometry">
            <mxPoint x="2" y="18" as="offset" />
          </mxGeometry>
        </mxCell>
        <mxCell id="ziHvxphegY-7aYO601hB-40" style="edgeStyle=orthogonalEdgeStyle;rounded=0;orthogonalLoop=1;jettySize=auto;html=1;exitX=0.5;exitY=1;exitDx=0;exitDy=0;entryX=0.5;entryY=0;entryDx=0;entryDy=0;" edge="1" parent="WIyWlLk6GJQsqaUBKTNV-1" source="ziHvxphegY-7aYO601hB-17" target="ziHvxphegY-7aYO601hB-9">
          <mxGeometry relative="1" as="geometry">
            <Array as="points">
              <mxPoint x="-1135" y="370" />
              <mxPoint x="-1515" y="370" />
            </Array>
          </mxGeometry>
        </mxCell>
        <mxCell id="ziHvxphegY-7aYO601hB-41" value="1:n" style="edgeLabel;html=1;align=center;verticalAlign=middle;resizable=0;points=[];" vertex="1" connectable="0" parent="ziHvxphegY-7aYO601hB-40">
          <mxGeometry x="0.4409" relative="1" as="geometry">
            <mxPoint as="offset" />
          </mxGeometry>
        </mxCell>
        <mxCell id="ziHvxphegY-7aYO601hB-43" style="edgeStyle=orthogonalEdgeStyle;rounded=0;orthogonalLoop=1;jettySize=auto;html=1;exitX=0.5;exitY=1;exitDx=0;exitDy=0;" edge="1" parent="WIyWlLk6GJQsqaUBKTNV-1" source="ziHvxphegY-7aYO601hB-17" target="ziHvxphegY-7aYO601hB-10">
          <mxGeometry relative="1" as="geometry">
            <Array as="points">
              <mxPoint x="-1135" y="370" />
              <mxPoint x="-1325" y="370" />
            </Array>
          </mxGeometry>
        </mxCell>
        <mxCell id="ziHvxphegY-7aYO601hB-44" value="1:n" style="edgeLabel;html=1;align=center;verticalAlign=middle;resizable=0;points=[];" vertex="1" connectable="0" parent="ziHvxphegY-7aYO601hB-43">
          <mxGeometry x="0.8" y="-1" relative="1" as="geometry">
            <mxPoint as="offset" />
          </mxGeometry>
        </mxCell>
        <mxCell id="ziHvxphegY-7aYO601hB-47" style="edgeStyle=orthogonalEdgeStyle;rounded=0;orthogonalLoop=1;jettySize=auto;html=1;exitX=1;exitY=0.5;exitDx=0;exitDy=0;entryX=0;entryY=0.5;entryDx=0;entryDy=0;" edge="1" parent="WIyWlLk6GJQsqaUBKTNV-1" source="ziHvxphegY-7aYO601hB-17" target="ziHvxphegY-7aYO601hB-7">
          <mxGeometry relative="1" as="geometry" />
        </mxCell>
        <mxCell id="ziHvxphegY-7aYO601hB-48" value="1:1" style="edgeLabel;html=1;align=center;verticalAlign=middle;resizable=0;points=[];" vertex="1" connectable="0" parent="ziHvxphegY-7aYO601hB-47">
          <mxGeometry x="-0.1889" y="-1" relative="1" as="geometry">
            <mxPoint y="-104" as="offset" />
          </mxGeometry>
        </mxCell>
        <mxCell id="ziHvxphegY-7aYO601hB-49" style="edgeStyle=orthogonalEdgeStyle;rounded=0;orthogonalLoop=1;jettySize=auto;html=1;exitX=1;exitY=0.5;exitDx=0;exitDy=0;entryX=0;entryY=0.5;entryDx=0;entryDy=0;" edge="1" parent="WIyWlLk6GJQsqaUBKTNV-1" source="ziHvxphegY-7aYO601hB-17" target="ziHvxphegY-7aYO601hB-8">
          <mxGeometry relative="1" as="geometry" />
        </mxCell>
        <mxCell id="ziHvxphegY-7aYO601hB-50" value="1:1" style="edgeLabel;html=1;align=center;verticalAlign=middle;resizable=0;points=[];" vertex="1" connectable="0" parent="ziHvxphegY-7aYO601hB-49">
          <mxGeometry x="0.2914" y="-2" relative="1" as="geometry">
            <mxPoint as="offset" />
          </mxGeometry>
        </mxCell>
        <mxCell id="ziHvxphegY-7aYO601hB-51" style="edgeStyle=orthogonalEdgeStyle;rounded=0;orthogonalLoop=1;jettySize=auto;html=1;exitX=1;exitY=0.5;exitDx=0;exitDy=0;entryX=0;entryY=0.5;entryDx=0;entryDy=0;" edge="1" parent="WIyWlLk6GJQsqaUBKTNV-1" source="ziHvxphegY-7aYO601hB-17" target="ziHvxphegY-7aYO601hB-13">
          <mxGeometry relative="1" as="geometry" />
        </mxCell>
        <mxCell id="ziHvxphegY-7aYO601hB-52" value="1:1" style="edgeLabel;html=1;align=center;verticalAlign=middle;resizable=0;points=[];" vertex="1" connectable="0" parent="ziHvxphegY-7aYO601hB-51">
          <mxGeometry x="0.2629" y="1" relative="1" as="geometry">
            <mxPoint as="offset" />
          </mxGeometry>
        </mxCell>
        <mxCell id="ziHvxphegY-7aYO601hB-53" style="edgeStyle=orthogonalEdgeStyle;rounded=0;orthogonalLoop=1;jettySize=auto;html=1;exitX=0.5;exitY=1;exitDx=0;exitDy=0;" edge="1" parent="WIyWlLk6GJQsqaUBKTNV-1" source="ziHvxphegY-7aYO601hB-17" target="ziHvxphegY-7aYO601hB-15">
          <mxGeometry relative="1" as="geometry">
            <Array as="points">
              <mxPoint x="-1135" y="370" />
              <mxPoint x="-700" y="370" />
            </Array>
          </mxGeometry>
        </mxCell>
        <mxCell id="ziHvxphegY-7aYO601hB-54" value="1:n" style="edgeLabel;html=1;align=center;verticalAlign=middle;resizable=0;points=[];" vertex="1" connectable="0" parent="ziHvxphegY-7aYO601hB-53">
          <mxGeometry x="0.3445" y="-3" relative="1" as="geometry">
            <mxPoint as="offset" />
          </mxGeometry>
        </mxCell>
        <mxCell id="ziHvxphegY-7aYO601hB-17" value="&lt;code style=&quot;font-family: Consolas, &amp;quot;Bitstream Vera Sans Mono&amp;quot;, &amp;quot;Courier New&amp;quot;, Courier, monospace; border-radius: 0px; background: none rgb(255, 255, 255); border: 0px; inset: auto; float: none; height: auto; line-height: 20px; margin: 0px; outline: 0px; overflow: visible; padding: 0px; position: static; text-align: left; vertical-align: baseline; width: auto; box-sizing: content-box; font-size: 14px; min-height: inherit; text-wrap: nowrap; color: rgb(0, 51, 102) !important;&quot; class=&quot;java string&quot;&gt;lucky_marketing&lt;/code&gt;&lt;code style=&quot;font-family: Consolas, &amp;quot;Bitstream Vera Sans Mono&amp;quot;, &amp;quot;Courier New&amp;quot;, Courier, monospace; border-radius: 0px; background: none rgb(255, 255, 255); border: 0px; inset: auto; float: none; height: auto; line-height: 20px; margin: 0px; outline: 0px; overflow: visible; padding: 0px; position: static; text-align: left; vertical-align: baseline; width: auto; box-sizing: content-box; font-size: 14px; min-height: inherit; text-wrap: nowrap;&quot; class=&quot;java plain&quot;&gt;.&lt;/code&gt;&lt;div&gt;&lt;span style=&quot;font-family: Consolas, &amp;quot;Bitstream Vera Sans Mono&amp;quot;, &amp;quot;Courier New&amp;quot;, Courier, monospace; font-size: 14px; text-align: left; text-wrap: nowrap; background-color: rgb(255, 255, 255);&quot;&gt;t_mkt_coupon&lt;/span&gt;&lt;br&gt;&lt;/div&gt;" style="rounded=0;whiteSpace=wrap;html=1;" vertex="1" parent="WIyWlLk6GJQsqaUBKTNV-1">
          <mxGeometry x="-1220" y="280" width="170" height="60" as="geometry" />
        </mxCell>
        <mxCell id="ziHvxphegY-7aYO601hB-21" value="1:1" style="text;html=1;align=center;verticalAlign=middle;resizable=0;points=[];autosize=1;strokeColor=none;fillColor=none;" vertex="1" parent="WIyWlLk6GJQsqaUBKTNV-1">
          <mxGeometry x="-1300" y="85" width="40" height="30" as="geometry" />
        </mxCell>
        <mxCell id="ziHvxphegY-7aYO601hB-24" style="edgeStyle=orthogonalEdgeStyle;rounded=0;orthogonalLoop=1;jettySize=auto;html=1;exitX=0.5;exitY=1;exitDx=0;exitDy=0;entryX=0.5;entryY=0;entryDx=0;entryDy=0;" edge="1" parent="WIyWlLk6GJQsqaUBKTNV-1" source="ziHvxphegY-7aYO601hB-22" target="ziHvxphegY-7aYO601hB-4">
          <mxGeometry relative="1" as="geometry" />
        </mxCell>
        <mxCell id="ziHvxphegY-7aYO601hB-25" value="1:n" style="edgeLabel;html=1;align=center;verticalAlign=middle;resizable=0;points=[];" vertex="1" connectable="0" parent="ziHvxphegY-7aYO601hB-24">
          <mxGeometry x="-0.08" y="-2" relative="1" as="geometry">
            <mxPoint as="offset" />
          </mxGeometry>
        </mxCell>
        <mxCell id="ziHvxphegY-7aYO601hB-22" value="&lt;code style=&quot;font-family: Consolas, &amp;quot;Bitstream Vera Sans Mono&amp;quot;, &amp;quot;Courier New&amp;quot;, Courier, monospace; border-radius: 0px; background: none rgb(255, 255, 255); border: 0px; inset: auto; float: none; height: auto; line-height: 20px; margin: 0px; outline: 0px; overflow: visible; padding: 0px; position: static; text-align: left; vertical-align: baseline; width: auto; box-sizing: content-box; font-size: 14px; min-height: inherit; text-wrap: nowrap; color: rgb(0, 51, 102) !important;&quot; class=&quot;java string&quot;&gt;lucky_marketing&lt;/code&gt;&lt;code style=&quot;font-family: Consolas, &amp;quot;Bitstream Vera Sans Mono&amp;quot;, &amp;quot;Courier New&amp;quot;, Courier, monospace; border-radius: 0px; background: none rgb(255, 255, 255); border: 0px; inset: auto; float: none; height: auto; line-height: 20px; margin: 0px; outline: 0px; overflow: visible; padding: 0px; position: static; text-align: left; vertical-align: baseline; width: auto; box-sizing: content-box; font-size: 14px; min-height: inherit; text-wrap: nowrap;&quot; class=&quot;java plain&quot;&gt;.&lt;/code&gt;&lt;div style=&quot;text-align: left;&quot;&gt;&lt;font face=&quot;Consolas, Bitstream Vera Sans Mono, Courier New, Courier, monospace&quot;&gt;&lt;span style=&quot;font-size: 14px; text-wrap: nowrap;&quot;&gt;t_mkt_proposal_type&lt;/span&gt;&lt;/font&gt;&lt;br&gt;&lt;/div&gt;" style="rounded=0;whiteSpace=wrap;html=1;" vertex="1" parent="WIyWlLk6GJQsqaUBKTNV-1">
          <mxGeometry x="-1520" y="-40" width="190" height="60" as="geometry" />
        </mxCell>
        <mxCell id="ziHvxphegY-7aYO601hB-27" value="1:1" style="text;html=1;align=center;verticalAlign=middle;resizable=0;points=[];autosize=1;strokeColor=none;fillColor=none;" vertex="1" parent="WIyWlLk6GJQsqaUBKTNV-1">
          <mxGeometry x="-1260" y="-25" width="40" height="30" as="geometry" />
        </mxCell>
        <mxCell id="ziHvxphegY-7aYO601hB-32" value="1:1" style="text;html=1;align=center;verticalAlign=middle;resizable=0;points=[];autosize=1;strokeColor=none;fillColor=none;" vertex="1" parent="WIyWlLk6GJQsqaUBKTNV-1">
          <mxGeometry x="-1300" y="295" width="40" height="30" as="geometry" />
        </mxCell>
        <mxCell id="ziHvxphegY-7aYO601hB-45" style="edgeStyle=orthogonalEdgeStyle;rounded=0;orthogonalLoop=1;jettySize=auto;html=1;exitX=0.5;exitY=1;exitDx=0;exitDy=0;" edge="1" parent="WIyWlLk6GJQsqaUBKTNV-1" source="ziHvxphegY-7aYO601hB-17">
          <mxGeometry relative="1" as="geometry">
            <mxPoint x="-940" y="420" as="targetPoint" />
            <Array as="points">
              <mxPoint x="-1135" y="370" />
              <mxPoint x="-939" y="370" />
            </Array>
          </mxGeometry>
        </mxCell>
        <mxCell id="ziHvxphegY-7aYO601hB-46" value="1:n" style="edgeLabel;html=1;align=center;verticalAlign=middle;resizable=0;points=[];" vertex="1" connectable="0" parent="ziHvxphegY-7aYO601hB-45">
          <mxGeometry x="-0.245" relative="1" as="geometry">
            <mxPoint as="offset" />
          </mxGeometry>
        </mxCell>
      </root>
    </mxGraphModel>
  </diagram>
</mxfile>
